<svg id="Capa_1" enable-background="new 0 0 512 512" height="512" viewBox="0 0 512 512" width="512" xmlns="http://www.w3.org/2000/svg"><g><g><path d="m70 50v66c0 19.7 9.49 37.18 24.15 48.12 9.97 7.44 15.85 19.14 15.85 31.57v.31l20 20 20-20v-.31c0-12.41 5.9-24.15 15.85-31.57 14.66-10.94 24.15-28.42 24.15-48.12v-26z" fill="#fce8d0"/><path d="m322 64.65v51.35c0 19.7 9.49 37.18 24.15 48.12 9.97 7.44 15.85 19.14 15.85 31.57v.31l20 20 20-20v-.31c0-12.41 5.9-24.15 15.85-31.57 14.66-10.94 24.15-28.42 24.15-48.12v-50z" fill="#fce8d0"/><path d="m362 336h120v166h-120z" fill="#eefaff"/><path d="m30 336h120v166h-120z" fill="#eefaff"/><path d="m482 236v40h-80c47.602-95.204 38.936-77.872 40-80 22.09 0 40 17.91 40 40z" fill="#ff7b79"/><path d="m362 376h80v86h-80z" fill="#ffda8f"/><path d="m442 50v40h-20c-11.05 0-20-8.95-20-20h-60c-22.102 0-40-17.919-40-40v-20h100c22.09 0 40 17.91 40 40z" fill="#ffda8f"/><path d="m442 196-26.67 53.33-33.33-33.33 20-20z" fill="#eefaff"/><path d="m415.33 249.33-13.33 26.67h-40l-13.33-26.67 33.33-33.33z" fill="#8690a6"/><path d="m382 216-33.33 33.33-26.67-53.33h40z" fill="#eefaff"/><path d="m362 502h-212c0-35.318 0-132.915 0-166h212z" fill="#ff7b79"/><path d="m362 276h-80v-40c0-22.09 17.91-40 40-40 1.047 2.093-7.538-15.075 40 80z" fill="#ff7b79"/><path d="m10 276v60h492v-60c-45.583 0-468.137 0-492 0z" fill="#ffda8f"/><path d="m230 236v40h-80c47.602-95.204 38.936-77.872 40-80 22.09 0 40 17.91 40 40z" fill="#9bc5ff"/><path d="m134.72 90c-27.41 0-52.46-15.49-64.72-40 0-22.09 17.91-40 40-40h40c22.09 0 40 17.91 40 40v40c-11.824 0-43.467 0-55.28 0z" fill="#ffda8f"/><path d="m190 196-26.67 53.33-33.33-33.33 20-20z" fill="#eefaff"/><path d="m163.33 249.33-13.33 26.67h-40l-13.33-26.67 33.33-33.33z" fill="#8690a6"/><path d="m70 376h80v86h-80z" fill="#ffda8f"/><path d="m130 216-33.33 33.33-26.67-53.33h40z" fill="#eefaff"/><path d="m110 276h-80v-40c0-22.09 17.91-40 40-40 1.047 2.093-7.538-15.075 40 80z" fill="#9bc5ff"/></g><g><path d="m502 266h-10v-30c0-27.57-22.43-50-50-50h-28.34c1.921-5.464 5.436-10.334 10.17-13.865 17.64-13.163 28.17-34.148 28.17-56.135 0-15.284 0-55.261 0-66 0-27.57-22.43-50-50-50h-100c-5.522 0-10 4.477-10 10v20c0 15.777 7.54 30.598 20 39.979v46.021c0 21.987 10.53 42.972 28.17 56.134 4.733 3.533 8.248 8.403 10.169 13.866h-28.339c-27.57 0-50 22.43-50 50v30h-32v-30c0-27.57-22.43-50-50-50h-28.339c1.92-5.464 5.435-10.334 10.17-13.866 17.638-13.162 28.169-34.147 28.169-56.134v-66c0-27.57-22.43-50-50-50h-40c-27.432 0-49.766 22.207-49.99 49.587-.003.067-.004.134-.005.201 0 .071-.005.141-.005.212v66c0 21.987 10.531 42.972 28.169 56.135 4.733 3.532 8.248 8.403 10.169 13.865h-28.338c-27.57 0-50 22.43-50 50v30h-10c-5.523 0-10 4.477-10 10v60c0 5.523 4.477 10 10 10h10v156c0 5.523 4.477 10 10 10h180.999c5.523 0 10-4.477 10-10s-4.477-10-10-10h-50.999v-146h192v146h-50.999c-5.522 0-10 4.477-10 10s4.478 10 10 10h180.999c5.522 0 10-4.477 10-10v-156h10c5.522 0 10-4.477 10-10v-60c0-5.523-4.478-10-10-10zm-30-30v30h-53.819l29.708-59.416c13.731 2.744 24.111 14.889 24.111 29.416zm-103.819 30-7.346-14.692 21.165-21.165 21.165 21.165-7.346 14.692zm57.638-60-13.226 26.451-16.45-16.451 10-10zm-113.819-186h90c16.542 0 30 13.458 30 30v30h-10c-5.514 0-10-4.486-10-10 0-5.523-4.478-10-10-10h-60c-16.812 0-30-13.711-30-30zm20 96v-37.017c3.28.669 6.629 1.017 10 1.017h51.714c4.127 11.641 15.249 20 28.286 20h10v16c0 15.941-7.338 30.559-20.129 40.104-11.361 8.473-18.522 21.552-19.684 35.567l-10.187 10.186-10.187-10.187c-1.162-14.01-8.322-27.087-19.682-35.565-12.793-9.546-20.131-24.164-20.131-40.105zm25.857 90 10 10-16.451 16.451-13.225-26.451zm-65.857 30c0-14.527 10.38-26.672 24.111-29.416l29.708 59.416h-53.819zm-72 0v30h-53.82l29.708-59.416c13.732 2.744 24.112 14.889 24.112 29.416zm-103.82 30-7.346-14.692 21.166-21.165 21.166 21.166-7.346 14.691zm57.64-60-13.226 26.451-16.451-16.451 10-10zm-63.82-186h40c16.542 0 30 13.458 30 30v30h-10c-16.542 0-30-13.458-30-30 0-5.523-4.477-10-10-10s-10 4.477-10 10c0 11.163 3.679 21.481 9.885 29.811-20.988-1.598-39.589-13.534-49.789-32.096 1.172-15.477 14.132-27.715 29.904-27.715zm-30 96v-36.726c14.777 13.169 34.063 20.726 54.72 20.726h45.28v16c0 15.94-7.337 30.559-20.128 40.104-11.362 8.473-18.523 21.552-19.685 35.567l-10.187 10.186-10.187-10.187c-1.162-14.01-8.322-27.088-19.682-35.565-12.794-9.546-20.131-24.165-20.131-40.105zm25.857 90 10 10-16.451 16.451-13.226-26.451zm-65.857 30c0-14.527 10.38-26.672 24.112-29.416l29.708 59.416h-53.82zm-20 50h226v40h-226zm120 166h-60v-66h60zm0-86h-70c-5.523 0-10 4.477-10 10v86c0 5.523 4.477 10 10 10h70v20h-100v-146h100zm232 20h60v66h-60zm100 106h-100v-20h70c5.522 0 10-4.477 10-10v-86c0-5.523-4.478-10-10-10h-70v-20h100zm20-166h-226v-40h226z"/><path d="m296 389c3.813 0 7.241 2.118 8.948 5.527 2.473 4.939 8.481 6.936 13.418 4.465 4.938-2.473 6.938-8.48 4.465-13.419-5.117-10.222-15.398-16.573-26.831-16.573-16.542 0-30 13.458-30 30s13.458 30 30 30c5.514 0 10 4.486 10 10s-4.486 10-10 10c-2.668 0-5.179-1.041-7.069-2.931-3.904-3.905-10.237-3.905-14.142 0-3.905 3.906-3.905 10.237.001 14.143 5.668 5.667 13.2 8.788 21.21 8.788 16.542 0 30-13.458 30-30s-13.458-30-30-30c-5.514 0-10-4.486-10-10s4.486-10 10-10z"/><path d="m196 369c-5.523 0-10 4.477-10 10v31.72c0 20.908 8.143 40.565 22.929 55.351 1.953 1.953 4.512 2.929 7.071 2.929s5.119-.976 7.071-2.929c14.786-14.786 22.929-34.443 22.929-55.351v-31.72c0-5.523-4.478-10-10-10-5.523 0-10 4.477-10 10v31.72c0 11.82-3.497 23.104-10 32.671-6.503-9.566-10-20.851-10-32.671v-31.72c0-5.523-4.477-10-10-10z"/><circle cx="256" cy="502" r="10"/></g></g></svg>