<svg id="Capa_1" enable-background="new 0 0 512 512" height="512" viewBox="0 0 512 512" width="512" xmlns="http://www.w3.org/2000/svg"><g><g><g><path d="m196 202v60c0 19.7 9.49 37.18 24.15 48.12 9.97 7.44 15.85 19.14 15.85 31.57v.31l20 20 20-20v-.31c0-12.41 5.9-24.15 15.85-31.57 14.66-10.94 24.15-28.42 24.15-48.12v-20z" fill="#fce8d0"/><path d="m502 10v120h-80l-40 40v-40h-60v-120z" fill="#d8ec84"/><path d="m56 422v40h40v40h320v-40h40v-40c-133.535 0-267.329 0-400 0z" fill="#ffda8f"/><circle cx="376" cy="302" fill="#eefaff" r="20"/><path d="m356 382v40h-80c47.602-95.204 38.936-77.872 40-80 22.09 0 40 17.91 40 40z" fill="#9bc5ff"/><path d="m316 342-26.67 53.33-33.33-33.33 20-20z" fill="#eefaff"/><path d="m289.33 395.33-13.33 26.67h-40l-13.33-26.67 33.33-33.33z" fill="#8690a6"/><path d="m256 362-33.33 33.33-26.67-53.33h40z" fill="#eefaff"/><path d="m236 422h-80v-40c0-22.09 17.91-40 40-40 1.047 2.093-7.538-15.075 40 80z" fill="#9bc5ff"/><path d="m190 10v120h-60v40l-40-40h-80v-120z" fill="#ffda8f"/><circle cx="136" cy="302" fill="#eefaff" r="20"/></g><path d="m260.72 242c-27.41 0-52.46-15.49-64.72-40 0-22.09 17.91-40 40-40h40c22.09 0 40 17.91 40 40v40c-11.824 0-43.467 0-55.28 0z" fill="#ffda8f"/></g><g><path d="m297.83 318.135c17.64-13.163 28.17-34.148 28.17-56.135v-60c0-27.57-22.43-50-50-50h-40c-25.96 0-49.352 20.241-49.995 49.789 0 .071-.005.141-.005.211v60c0 21.987 10.53 42.972 28.17 56.134 4.733 3.533 8.248 8.403 10.169 13.866h-28.339c-27.57 0-50 22.43-50 50v30h-40v-46.973l22.627-33.947c2.36.599 4.83.919 7.373.919 16.542 0 30-13.458 30-30s-13.458-30-30-30-30 13.458-30 30c0 6.736 2.232 12.959 5.995 17.972l-24.316 36.481c-1.095 1.644-1.679 3.574-1.679 5.548v50h-30c-5.522 0-10 4.477-10 10v40c0 5.523 4.478 10 10 10h30v30c0 5.523 4.478 10 10 10h115c5.522 0 10-4.477 10-10s-4.478-10-10-10h-105v-20h300v20h-105c-5.522 0-10 4.477-10 10s4.478 10 10 10h115c5.522 0 10-4.477 10-10v-30h30c5.522 0 10-4.477 10-10v-40c0-5.523-4.478-10-10-10h-30v-50c0-1.974-.584-3.904-1.679-5.546l-24.316-36.481c3.763-5.014 5.995-11.237 5.995-17.973 0-16.542-13.458-30-30-30s-30 13.458-30 30 13.458 30 30 30c2.544 0 5.013-.321 7.374-.919l22.626 33.946v46.973h-40v-30c0-27.57-22.43-50-50-50h-28.34c1.921-5.464 5.436-10.334 10.17-13.865zm-161.83-26.135c5.514 0 10 4.486 10 10s-4.486 10-10 10-10-4.486-10-10 4.486-10 10-10zm230 10c0-5.514 4.486-10 10-10s10 4.486 10 10-4.486 10-10 10-10-4.486-10-10zm-130-130h40c16.542 0 30 13.458 30 30v30h-10c-16.542 0-30-13.458-30-30 0-5.523-4.478-10-10-10s-10 4.477-10 10c0 11.163 3.679 21.481 9.885 29.811-20.988-1.597-39.588-13.533-49.789-32.096 1.172-15.477 14.132-27.715 29.904-27.715zm-4.143 180 10 10-16.451 16.451-13.225-26.451zm37.962 60h-27.639l-7.346-14.692 21.166-21.165 21.165 21.165zm-103.819-30c0-14.527 10.38-26.672 24.111-29.416l29.708 59.416h-53.819zm280 70h-380v-20h380zm-100-70v30h-53.819l29.708-59.416c13.731 2.744 24.111 14.889 24.111 29.416zm-46.181-30-13.226 26.451-16.45-16.451 10-10zm-13.948-49.896c-11.361 8.473-18.522 21.552-19.684 35.567l-10.187 10.186-10.187-10.187c-1.162-14.01-8.322-27.087-19.682-35.565-12.793-9.546-20.131-24.165-20.131-40.105v-30.726c14.777 13.169 34.063 20.726 54.72 20.726h45.28v10c0 15.94-7.338 30.559-20.129 40.104z"/><path d="m10 140h75.857l37.071 37.071c2.861 2.861 7.161 3.715 10.898 2.167 3.736-1.548 6.173-5.194 6.173-9.239v-30h50c5.522 0 10-4.477 10-10v-119.999c0-5.523-4.478-10-10-10h-179.999c-5.522 0-10 4.477-10 10v120c0 5.523 4.478 10 10 10zm10-120h160v100h-50c-5.522 0-10 4.477-10 10v15.858l-22.929-22.929c-1.876-1.875-4.419-2.929-7.071-2.929h-70z"/><path d="m502 0h-180c-5.522 0-10 4.477-10 10v120c0 5.523 4.478 10 10 10h50v30c0 4.044 2.437 7.691 6.173 9.239 3.737 1.549 8.038.692 10.898-2.167l37.072-37.072h75.857c5.522 0 10-4.477 10-10v-120c0-5.523-4.478-10-10-10zm-10 120h-70c-2.652 0-5.195 1.054-7.071 2.929l-22.929 22.929v-15.858c0-5.523-4.478-10-10-10h-50v-100h160z"/><path d="m60 50c-5.522 0-10 4.477-10 10v20c0 5.523 4.478 10 10 10s10-4.477 10-10v-20c0-5.523-4.478-10-10-10z"/><path d="m100 90c5.522 0 10-4.477 10-10v-20c0-5.523-4.478-10-10-10s-10 4.477-10 10v20c0 5.523 4.478 10 10 10z"/><path d="m140 90c5.522 0 10-4.477 10-10v-20c0-5.523-4.478-10-10-10s-10 4.477-10 10v20c0 5.523 4.478 10 10 10z"/><path d="m372 90c5.522 0 10-4.477 10-10v-20c0-5.523-4.478-10-10-10s-10 4.477-10 10v20c0 5.523 4.478 10 10 10z"/><path d="m412 90c5.522 0 10-4.477 10-10v-20c0-5.523-4.478-10-10-10s-10 4.477-10 10v20c0 5.523 4.478 10 10 10z"/><path d="m452 90c5.522 0 10-4.477 10-10v-20c0-5.523-4.478-10-10-10s-10 4.477-10 10v20c0 5.523 4.478 10 10 10z"/><circle cx="256" cy="502" r="10"/></g></g></svg>